<svg id="Capa_1" data-name="Capa 1" xmlns="http://www.w3.org/2000/svg" viewBox="0 0 36.07 36.07"><defs><style>.cls-1{fill:#070308;}.cls-2{fill:#fff;}</style></defs><title>face</title><path class="cls-1" d="M26.94,36.07H20.82L18,35.14l-2.76.93H9.13A9.13,9.13,0,0,1,0,26.94V9.13A9.13,9.13,0,0,1,9.13,0H26.94a9.13,9.13,0,0,1,9.13,9.13V26.94A9.13,9.13,0,0,1,26.94,36.07Z"/><path class="cls-2" d="M15.25,14.11V18H10.73v5.15h4.52V36.07h5.57V23.18H25L25.76,18H20.82V14.69a2.57,2.57,0,0,1,2.9-2.78H26V7.53a27.27,27.27,0,0,0-4-.35C17.91,7.18,15.25,9.64,15.25,14.11Z"/></svg>