<svg id="Capa_1" data-name="Capa 1" xmlns="http://www.w3.org/2000/svg" viewBox="0 0 35.63 35.63"><defs><style>.cls-1{fill:#070308;}</style></defs><title>ig</title><path class="cls-1" d="M27.46,6.58a2.09,2.09,0,1,0,2.09,2.09A2.09,2.09,0,0,0,27.46,6.58Z" transform="translate(-0.22 -0.22)"/><path class="cls-1" d="M18.18,9.26A8.78,8.78,0,1,0,27,18,8.77,8.77,0,0,0,18.18,9.26Zm0,14.39A5.62,5.62,0,1,1,23.8,18,5.62,5.62,0,0,1,18.18,23.65Z" transform="translate(-0.22 -0.22)"/><path class="cls-1" d="M25.14,35.85H10.92A10.71,10.71,0,0,1,.22,25.14V10.92A10.71,10.71,0,0,1,10.92.22H25.14a10.72,10.72,0,0,1,10.71,10.7V25.14A10.72,10.72,0,0,1,25.14,35.85ZM10.92,3.57a7.36,7.36,0,0,0-7.35,7.35V25.14a7.36,7.36,0,0,0,7.35,7.35H25.14a7.35,7.35,0,0,0,7.35-7.35V10.92a7.36,7.36,0,0,0-7.35-7.35Z" transform="translate(-0.22 -0.22)"/></svg>