<?xml version="1.0" encoding="utf-8"?>
<!-- Generator: Adobe Illustrator 26.0.1, SVG Export Plug-In . SVG Version: 6.00 Build 0)  -->
<svg version="1.1" id="Capa_1" xmlns="http://www.w3.org/2000/svg" xmlns:xlink="http://www.w3.org/1999/xlink" x="0px" y="0px"
	 viewBox="0 0 36.1 36.1" style="enable-background:new 0 0 36.1 36.1;" xml:space="preserve">
<style type="text/css">
	.st0{fill:#FFFFFF;}
</style>
<g>
	<path class="st0" d="M25.7,0.1h-15C4.9,0.1,0.2,4.7,0.2,10.5v15c0,5.7,4.7,10.4,10.4,10.4h15c5.7,0,10.4-4.7,10.4-10.4v-15
		C36.1,4.7,31.4,0.1,25.7,0.1z"/>
	<g>
		<g>
			<path d="M9.2,26.5h4.2V13.1H9.2V26.5z"/>
			<path d="M16.4,12.7h4.5l-0.3,1.8h0c1-1,1.9-1.8,3.5-1.8c2.3,0,5.4,1.2,5.4,5v8.8h-4.2v-7.6c0-1.3-0.8-2.6-2.2-2.6
				c-1.3,0-2.5,1.3-2.5,2.6v7.6h-4.2V12.7z"/>
		</g>
		<path d="M13.6,9.8c0,1.3-1,2.3-2.3,2.3C10,12.1,9,11,9,9.8c0-1.3,1-2.3,2.3-2.3C12.6,7.5,13.6,8.5,13.6,9.8z"/>
	</g>
</g>
</svg>
